<?xml version="1.0" encoding="utf-8"?>
<!-- Generator: Adobe Illustrator 19.2.1, SVG Export Plug-In . SVG Version: 6.00 Build 0)  -->
<svg version="1.1" id="Layer_1" xmlns="http://www.w3.org/2000/svg" xmlns:xlink="http://www.w3.org/1999/xlink" x="0px" y="0px"
	 viewBox="0 0 200 120" style="enable-background:new 0 0 200 120;" xml:space="preserve">
<style type="text/css">
	.st0{fill:#FFFFFF;}
</style>
<g id="XMLID_83_">
	<g id="XMLID_130_">
		<path id="XMLID_133_" class="st0" d="M3.5,114c0,0,40.2,3.3,55.8-21.2C81.8,57.4,88.2,39.2,118,25.6c18-8.2,37.2-5.7,46.7-20
			c0,0,1.5,23.9-40.4,33.7C95.6,46.1,74,83.2,62.4,95.2C50.9,107.2,35.3,116.4,3.5,114z"/>
		<path id="XMLID_132_" class="st0" d="M86.4,70.6c0,0,16.8-20.8,37.8-24.9c20.4-3.9,29.4-9.2,37.5-19.2c0,0-8,23.1-33.2,25.5
			C106.7,54.1,99,60.4,86.4,70.6z"/>
		<path id="XMLID_131_" class="st0" d="M69.7,89.2c0,0,15.3-20.3,28.9-20.5c11.7-0.2,16.5-1.4,23.7-4.9c0,0-8.7,9.5-22.1,10
			C83.9,74.4,77.8,82.4,69.7,89.2z"/>
	</g>
	<g id="XMLID_84_">
		<g id="XMLID_86_">
			<g>
				<path id="XMLID_188_" class="st0" d="M76.3,95.8v2.9h7v2.6h-7v6.7h-2.8V93.2h9.9v2.6H76.3z"/>
				<path id="XMLID_186_" class="st0" d="M88.1,108.1V93.2h2.8v14.8H88.1z"/>
				<path id="XMLID_184_" class="st0" d="M111,106.4c-1,0.7-1.9,1.2-2.7,1.5c-0.8,0.3-1.6,0.4-2.5,0.4c-1,0-2-0.2-3-0.6
					c-0.9-0.4-1.8-0.9-2.5-1.6c-0.7-0.7-1.3-1.5-1.7-2.4c-0.4-0.9-0.6-1.9-0.6-3c0-1.1,0.2-2.1,0.6-3c0.4-0.9,1-1.7,1.7-2.4
					c0.7-0.7,1.6-1.2,2.5-1.6c0.9-0.4,2-0.6,3-0.6c0.8,0,1.6,0.1,2.4,0.4c0.8,0.3,1.7,0.8,2.7,1.5l-1.5,2.2
					c-0.4-0.3-0.8-0.6-1.2-0.8c-0.3-0.2-0.7-0.3-1-0.4c-0.3-0.1-0.6-0.2-0.8-0.2c-0.3,0-0.5,0-0.7,0c-0.7,0-1.3,0.1-1.9,0.4
					c-0.6,0.3-1.1,0.6-1.6,1.1c-0.5,0.5-0.8,1-1.1,1.6c-0.3,0.6-0.4,1.3-0.4,2c0,0.6,0.1,1.3,0.4,1.8c0.3,0.6,0.6,1.1,1.1,1.6
					c0.5,0.5,1,0.8,1.6,1.1c0.6,0.3,1.2,0.4,1.9,0.4c0.2,0,0.5,0,0.7-0.1c0.3,0,0.5-0.1,0.8-0.2c0.3-0.1,0.6-0.2,1-0.4
					c0.3-0.2,0.7-0.4,1.2-0.8L111,106.4z"/>
				<path id="XMLID_182_" class="st0" d="M123.2,95.8v12.2h-2.8V95.8H117v-2.6h9.8v2.6H123.2z"/>
				<path id="XMLID_180_" class="st0" d="M151.5,100.6c0,1-0.2,2-0.6,3c-0.4,0.9-0.9,1.7-1.6,2.4c-0.7,0.7-1.4,1.2-2.3,1.6
					c-0.9,0.4-1.9,0.6-3,0.6c-1.1,0-2.1-0.2-3-0.6c-0.9-0.4-1.7-0.9-2.4-1.6c-0.7-0.7-1.3-1.5-1.7-2.4c-0.4-0.9-0.6-1.9-0.6-3
					c0-1,0.2-2,0.6-3c0.4-0.9,1-1.7,1.7-2.4c0.7-0.7,1.5-1.2,2.4-1.6c0.9-0.4,1.9-0.6,3-0.6c1.3,0,2.6,0.3,3.7,0.9
					c1.1,0.6,2,1.4,2.7,2.5l-0.8,0.6c-0.6-0.9-1.4-1.6-2.4-2.2c-1-0.5-2-0.8-3.2-0.8c-0.9,0-1.8,0.2-2.6,0.5
					c-0.8,0.3-1.5,0.8-2.1,1.4c-0.6,0.6-1.1,1.3-1.4,2.1c-0.3,0.8-0.5,1.6-0.5,2.5c0,0.9,0.2,1.7,0.5,2.5c0.3,0.8,0.8,1.5,1.4,2.1
					c0.6,0.6,1.3,1.1,2.1,1.4c0.8,0.3,1.7,0.5,2.6,0.5c0.8,0,1.6-0.2,2.4-0.5c0.7-0.3,1.4-0.7,2-1.3c0.6-0.5,1-1.2,1.4-1.9
					c0.3-0.7,0.6-1.5,0.6-2.4H144v-1.1h7.5c0,0.1,0,0.2,0,0.3C151.5,100.5,151.5,100.6,151.5,100.6z"/>
				<path id="XMLID_178_" class="st0" d="M158.6,98.7c-0.3-0.1-0.6-0.2-0.8-0.2c-0.5,0-1,0.2-1.2,0.5c-0.3,0.3-0.5,0.7-0.6,1.1
					c-0.1,0.4-0.2,0.9-0.2,1.4c0,0.5,0,0.9,0,1.3v5.3h-1V97.8h1v1.4c0-0.1,0.1-0.2,0.1-0.3c0-0.1,0.1-0.1,0.1-0.2
					c0.2-0.4,0.5-0.7,0.8-0.9c0.3-0.2,0.7-0.3,1.2-0.3c0.2,0,0.4,0,0.5,0c0.2,0,0.4,0.1,0.6,0.2L158.6,98.7z"/>
				<path id="XMLID_175_" class="st0" d="M171.4,102.9c0,0.8-0.1,1.5-0.4,2.1c-0.3,0.7-0.6,1.2-1.1,1.7c-0.5,0.5-1,0.9-1.7,1.1
					c-0.6,0.3-1.3,0.4-2.1,0.4c-0.7,0-1.4-0.1-2-0.4c-0.6-0.3-1.2-0.7-1.7-1.2c-0.5-0.5-0.9-1.1-1.1-1.7c-0.3-0.7-0.4-1.3-0.4-2.1
					s0.1-1.4,0.4-2.1c0.3-0.7,0.6-1.2,1.1-1.7c0.5-0.5,1-0.9,1.7-1.2c0.6-0.3,1.3-0.4,2-0.4c0.7,0,1.4,0.1,2.1,0.4
					c0.6,0.3,1.2,0.6,1.7,1.1c0.5,0.5,0.9,1,1.1,1.7C171.3,101.4,171.4,102.1,171.4,102.9z M170.4,102.9c0-0.6-0.1-1.2-0.3-1.8
					c-0.2-0.5-0.5-1-0.9-1.4c-0.4-0.4-0.8-0.7-1.4-0.9c-0.5-0.2-1.1-0.3-1.7-0.3c-0.6,0-1.2,0.1-1.7,0.4c-0.5,0.2-0.9,0.6-1.3,1
					c-0.4,0.4-0.7,0.9-0.9,1.4c-0.2,0.5-0.3,1.1-0.3,1.7c0,0.6,0.1,1.2,0.3,1.7c0.2,0.5,0.5,1,0.9,1.4c0.4,0.4,0.8,0.7,1.3,1
					c0.5,0.2,1,0.4,1.6,0.4c0.6,0,1.2-0.1,1.7-0.3c0.5-0.2,1-0.5,1.4-0.9c0.4-0.4,0.7-0.9,0.9-1.4
					C170.3,104.1,170.4,103.5,170.4,102.9z"/>
				<path id="XMLID_173_" class="st0" d="M182.1,103.9c0,0.7-0.1,1.3-0.2,1.8c-0.1,0.5-0.3,1-0.6,1.4c-0.3,0.4-0.7,0.7-1.2,0.9
					c-0.5,0.2-1.1,0.3-1.9,0.3c-0.7,0-1.4-0.1-1.9-0.3c-0.5-0.2-0.9-0.5-1.2-0.9c-0.3-0.4-0.5-0.8-0.6-1.4c-0.1-0.5-0.2-1.1-0.2-1.8
					v-6.1h1v6.1c0,0.5,0,1,0.1,1.4c0.1,0.4,0.2,0.8,0.4,1.1c0.2,0.3,0.5,0.5,0.9,0.7c0.4,0.2,0.9,0.2,1.5,0.2c0.6,0,1.1-0.1,1.5-0.2
					c0.4-0.2,0.7-0.4,0.9-0.7c0.2-0.3,0.3-0.6,0.4-1.1c0.1-0.4,0.1-0.9,0.1-1.4v-6.1h1V103.9z"/>
				<path id="XMLID_170_" class="st0" d="M195.9,103c0,0.7-0.1,1.4-0.3,2.1c-0.2,0.6-0.6,1.2-1,1.7c-0.4,0.5-1,0.8-1.6,1.1
					c-0.6,0.3-1.3,0.4-2.1,0.4c-0.7,0-1.4-0.1-2.1-0.4c-0.7-0.3-1.3-0.8-1.8-1.6v7.9h-1V97.8h1v1.9c0.6-0.7,1.2-1.3,1.9-1.6
					c0.7-0.3,1.3-0.5,2-0.5c0.8,0,1.5,0.1,2.1,0.4c0.6,0.3,1.1,0.7,1.6,1.2c0.4,0.5,0.8,1.1,1,1.7
					C195.7,101.6,195.9,102.3,195.9,103z M194.8,103.1c0-0.6-0.1-1.1-0.3-1.7s-0.4-1-0.8-1.5c-0.3-0.4-0.7-0.8-1.2-1
					c-0.5-0.3-1-0.4-1.6-0.4c-0.7,0-1.2,0.1-1.7,0.4c-0.5,0.3-0.9,0.6-1.2,1c-0.3,0.4-0.6,0.9-0.8,1.5c-0.2,0.6-0.3,1.1-0.3,1.7
					c0,0.6,0.1,1.2,0.3,1.7c0.2,0.5,0.5,1,0.8,1.3c0.3,0.4,0.8,0.7,1.3,0.9c0.5,0.2,1,0.3,1.6,0.3c0.6,0,1.1-0.1,1.6-0.4
					c0.5-0.2,0.9-0.5,1.2-0.9c0.3-0.4,0.6-0.9,0.8-1.4C194.8,104.2,194.8,103.6,194.8,103.1z"/>
			</g>
		</g>
		<circle id="XMLID_85_" class="st0" cx="89.7" cy="89.6" r="1.9"/>
	</g>
</g>
</svg>
